<svg width="420" height="320" viewBox="0 0 420 320" fill="none" xmlns="http://www.w3.org/2000/svg">
<g clip-path="url(#clip0_574_6938)">
<path d="M145.394 311.649L149.516 312.884L156.241 297.57L150.157 295.748L145.394 311.649Z" fill="#F6C8C8"/>
<path d="M144.746 309.988L152.864 312.42C154.236 312.831 155.389 313.771 156.069 315.032C156.749 316.292 156.9 317.772 156.489 319.144L156.438 319.312L143.146 315.331L144.746 309.988Z" fill="#2B2B2B"/>
<path d="M184.571 315.018L188.612 313.536L184.821 297.247L178.857 299.433L184.571 315.018Z" fill="#F6C8C8"/>
<path d="M183.057 314.076L191.014 311.159C192.359 310.666 193.845 310.727 195.144 311.329C196.444 311.932 197.451 313.026 197.944 314.371L198.005 314.535L184.976 319.312L183.057 314.076Z" fill="#2B2B2B"/>
<path d="M152.306 283.928L145.286 307.095L153.71 309.552L161.784 288.14L152.306 283.928Z" fill="#2B2B2B"/>
<path d="M174.42 289.193L180.739 310.956L189.514 306.744L183.196 286.385L174.42 289.193Z" fill="#2B2B2B"/>
<path d="M171.132 293.118C165.513 293.092 159.907 292.575 154.378 291.573L154.237 291.544V286.191L151.028 285.834L153.533 276.89C152.365 263.111 154.024 245.661 154.561 240.638C154.684 239.461 154.765 238.8 154.765 238.8L157.58 214.866L162.291 210.518L164.432 211.91L168.402 215.88C173.016 227.237 176.678 237.929 176.701 238.616L192.177 288.209L192.073 288.283C186.699 292.076 178.508 293.118 171.132 293.118Z" fill="#2B2B2B"/>
<path opacity="0.2" d="M159.577 225.482L158.495 232.236L165.82 235.258L159.577 225.482Z" fill="black"/>
<path d="M173.951 210.482H157.014C156.665 210.482 156.331 210.343 156.085 210.097C155.839 209.85 155.7 209.516 155.7 209.168V201.868C155.705 199.276 156.738 196.793 158.572 194.962C160.406 193.132 162.891 192.104 165.482 192.104C168.074 192.104 170.559 193.132 172.393 194.962C174.227 196.793 175.26 199.276 175.265 201.868V209.168C175.265 209.516 175.126 209.85 174.88 210.097C174.634 210.343 174.3 210.482 173.951 210.482Z" fill="#2B2B2B"/>
<path d="M167.353 210.042C171.314 210.042 174.525 206.831 174.525 202.87C174.525 198.909 171.314 195.698 167.353 195.698C163.391 195.698 160.18 198.909 160.18 202.87C160.18 206.831 163.391 210.042 167.353 210.042Z" fill="#F6C8C8"/>
<path d="M177.58 202.598H167.223L167.117 201.111L166.586 202.598H164.991L164.781 199.65L163.728 202.598H160.643V202.452C160.645 200.4 161.461 198.433 162.912 196.982C164.362 195.531 166.329 194.715 168.381 194.713H169.841C171.893 194.715 173.86 195.531 175.311 196.982C176.762 198.433 177.578 200.4 177.58 202.452V202.598Z" fill="#2B2B2B"/>
<path d="M167.138 211.845C167.06 211.845 166.982 211.838 166.905 211.824L159.322 210.486V197.953H167.67L167.463 198.194C164.588 201.547 166.754 206.985 168.301 209.929C168.415 210.144 168.466 210.387 168.448 210.631C168.43 210.874 168.343 211.107 168.199 211.303C168.077 211.471 167.918 211.607 167.733 211.702C167.549 211.796 167.345 211.845 167.138 211.845Z" fill="#2B2B2B"/>
<path d="M180.52 242.14H176.363C176.23 242.14 176.101 242.091 176.002 242.001C175.903 241.911 175.842 241.788 175.829 241.655L174.997 233.127H181.886L181.054 241.655C181.041 241.788 180.98 241.911 180.881 242.001C180.782 242.091 180.653 242.14 180.52 242.14Z" fill="#FFD369"/>
<path d="M181.874 234.2H175.007C174.865 234.199 174.729 234.143 174.628 234.042C174.527 233.942 174.471 233.805 174.471 233.663V232.376C174.471 232.233 174.527 232.097 174.628 231.996C174.729 231.896 174.865 231.839 175.007 231.839H181.874C182.016 231.839 182.153 231.896 182.253 231.996C182.354 232.097 182.411 232.233 182.411 232.376V233.663C182.411 233.805 182.354 233.942 182.253 234.042C182.153 234.143 182.016 234.199 181.874 234.2Z" fill="#2B2B2B"/>
<path opacity="0.2" d="M154.938 238.47C156.847 240.68 159.437 242.194 162.299 242.772C165.162 243.351 168.136 242.962 170.753 241.666L172.314 240.894L154.938 238.47Z" fill="black"/>
<path d="M179.897 236.819C179.577 236.459 179.182 236.174 178.74 235.984C178.298 235.794 177.82 235.703 177.339 235.717C176.858 235.732 176.386 235.852 175.956 236.068C175.526 236.285 175.15 236.593 174.852 236.971L167.61 234.938L165.301 239.038L175.568 241.765C176.237 242.223 177.05 242.42 177.854 242.318C178.657 242.217 179.396 241.824 179.93 241.214C180.463 240.605 180.754 239.821 180.748 239.01C180.742 238.2 180.439 237.42 179.897 236.819Z" fill="#F6C8C8"/>
<path d="M162.615 241.368C159.172 241.369 154.514 239.35 148.983 235.44C148.675 235.226 148.415 234.951 148.218 234.632C148.022 234.312 147.894 233.955 147.843 233.584C147.435 231 149.956 227.506 150.203 227.171L152.853 219.894C152.883 219.775 153.737 216.627 155.881 215.507C156.333 215.275 156.829 215.144 157.336 215.122C157.843 215.101 158.348 215.189 158.818 215.381C162.901 216.868 159.713 228.351 159.275 229.857L164.685 232.404L168.121 234.594L172.827 235.086L171.549 240.999L164.403 241.159C163.818 241.303 163.218 241.373 162.615 241.368Z" fill="#2B2B2B"/>
<path d="M419.452 187.433C419.449 180.524 417.908 173.702 414.942 167.462C411.977 161.222 407.66 155.72 402.305 151.354C396.95 146.988 390.691 143.869 383.982 142.221C377.272 140.573 370.28 140.438 363.512 141.826C356.743 143.214 350.369 146.09 344.85 150.247C339.331 154.403 334.805 159.734 331.601 165.856C328.397 171.977 326.595 178.734 326.325 185.638C326.055 192.542 327.324 199.419 330.04 205.772C329.995 205.721 329.948 205.672 329.902 205.621C331.971 210.443 334.84 214.882 338.386 218.749C338.397 218.761 338.408 218.772 338.418 218.784C338.704 219.095 338.992 219.406 339.287 219.71C343.543 224.15 348.64 227.7 354.28 230.154C359.92 232.608 365.991 233.917 372.141 234.005L370.567 319.5H375.43L374.446 263.072L381.48 259.369L380.407 257.331L374.401 260.493L373.939 234.001C386.105 233.722 397.678 228.694 406.184 219.991C414.69 211.288 419.452 199.602 419.452 187.433Z" fill="#E1DDD9"/>
<path d="M281.196 164.729C281.192 156.632 279.386 148.638 275.911 141.325C272.435 134.012 267.376 127.564 261.101 122.448C254.825 117.332 247.49 113.675 239.627 111.744C231.764 109.813 223.57 109.655 215.638 111.282C207.706 112.909 200.236 116.279 193.768 121.15C187.3 126.02 181.996 132.269 178.242 139.442C174.487 146.616 172.375 154.535 172.058 162.625C171.742 170.716 173.229 178.776 176.413 186.22C176.359 186.161 176.304 186.103 176.251 186.044C178.676 191.695 182.037 196.896 186.193 201.429C186.206 201.442 186.218 201.456 186.231 201.469C186.566 201.835 186.904 202.198 187.249 202.555C192.237 207.758 198.21 211.918 204.819 214.794C211.429 217.67 218.544 219.204 225.751 219.308L223.907 319.5H229.606L228.452 253.372L236.696 249.032L235.438 246.643L228.4 250.349L227.858 219.303C242.115 218.976 255.679 213.083 265.647 202.884C275.615 192.685 281.196 178.99 281.196 164.729Z" fill="#E1DDD9"/>
<path d="M124.398 143.374C124.393 134.16 122.338 125.062 118.383 116.741C114.428 108.419 108.671 101.081 101.53 95.2587C94.3883 89.4365 86.0412 85.2758 77.0932 83.0781C68.1452 80.8803 58.8203 80.7006 49.7942 82.5518C40.7682 84.4031 32.2669 88.239 24.9065 93.7816C17.546 99.3243 11.5107 106.435 7.23772 114.598C2.96477 122.761 0.561232 131.773 0.201244 140.98C-0.158744 150.187 1.53384 159.358 5.15635 167.83C5.09561 167.763 5.03284 167.697 4.97239 167.629C7.73166 174.061 11.5568 179.98 16.2866 185.137C16.3008 185.153 16.3153 185.168 16.3294 185.184C16.711 185.599 17.0949 186.013 17.4875 186.419C23.1644 192.34 29.9609 197.074 37.4825 200.347C45.0041 203.62 53.1009 205.366 61.3029 205.484L59.2037 319.5H65.689L64.3765 244.248L73.7577 239.309L72.3266 236.59L64.3165 240.807L63.7002 205.478C79.9248 205.106 95.3596 198.4 106.703 186.793C118.046 175.187 124.397 159.603 124.398 143.374Z" fill="#E1DDD9"/>
<path d="M357.556 81.2521C379.993 81.2521 398.182 63.0632 398.182 40.626C398.182 18.1889 379.993 0 357.556 0C335.119 0 316.93 18.1889 316.93 40.626C316.93 63.0632 335.119 81.2521 357.556 81.2521Z" fill="#2E3836"/>
<path d="M116.034 170.076C161.002 170.076 197.456 133.622 197.456 88.6542C197.456 43.6859 161.002 7.23187 116.034 7.23187C71.0653 7.23187 34.6113 43.6859 34.6113 88.6542C34.6113 133.622 71.0653 170.076 116.034 170.076Z" fill="#FFD369"/>
<path opacity="0.2" d="M55.9139 34.2704C48.319 52.0362 47.2887 71.9237 53.0071 90.3792C58.7255 108.835 70.8199 124.655 87.1292 135.015C103.439 145.374 122.9 149.596 142.036 146.927C161.172 144.258 178.735 134.872 191.587 120.445C186.948 131.3 180.004 141.015 171.237 148.919C162.47 156.823 152.089 162.727 140.814 166.221C129.539 169.715 117.639 170.715 105.938 169.154C94.2379 167.592 83.0169 163.505 73.0528 157.176C63.0888 150.848 54.6197 142.428 48.2326 132.501C41.8455 122.574 37.6929 111.378 36.0626 99.6866C34.4323 87.9956 35.3633 76.09 38.791 64.7945C42.2188 53.499 48.0613 43.0838 55.9139 34.2704Z" fill="black"/>
<path d="M116.257 88.654H116.481L120.508 319.5H112.007L116.257 88.654Z" fill="#2B2B2B"/>
<path d="M129.207 210.832L115.748 217.918L117.624 221.481L131.083 214.394L129.207 210.832Z" fill="#2B2B2B"/>
<path d="M240.571 317.34C240.571 317.34 240.865 311.185 246.887 311.9L240.571 317.34Z" fill="#2B2B2B"/>
<path d="M238.871 311.483C240.535 311.483 241.885 310.133 241.885 308.469C241.885 306.804 240.535 305.454 238.871 305.454C237.206 305.454 235.856 306.804 235.856 308.469C235.856 310.133 237.206 311.483 238.871 311.483Z" fill="#FFD369"/>
<path d="M239.231 313.544H238.38V319.5H239.231V313.544Z" fill="#2B2B2B"/>
<path d="M31.6987 316.49C31.6987 316.49 31.9925 310.334 38.0147 311.05L31.6987 316.49Z" fill="#2B2B2B"/>
<path d="M29.997 310.632C31.6616 310.632 33.0111 309.282 33.0111 307.618C33.0111 305.953 31.6616 304.604 29.997 304.604C28.3324 304.604 26.9829 305.953 26.9829 307.618C26.9829 309.282 28.3324 310.632 29.997 310.632Z" fill="#FFD369"/>
<path d="M30.3572 312.693H29.5063V318.649H30.3572V312.693Z" fill="#2B2B2B"/>
<path d="M81.0454 316.915C81.0454 316.915 81.3392 310.759 87.3614 311.475L81.0454 316.915Z" fill="#2B2B2B"/>
<path d="M79.3437 311.057C81.0083 311.057 82.3578 309.708 82.3578 308.043C82.3578 306.379 81.0083 305.029 79.3437 305.029C77.679 305.029 76.3296 306.379 76.3296 308.043C76.3296 309.708 77.679 311.057 79.3437 311.057Z" fill="#FFD369"/>
<path d="M79.7043 313.119H78.8535V319.074H79.7043V313.119Z" fill="#2B2B2B"/>
<path d="M212.28 39.361L218.326 34.5254C213.63 34.0072 211.7 36.5687 210.91 38.5962C207.241 37.0726 203.246 39.0694 203.246 39.0694L215.343 43.461C214.733 41.831 213.67 40.4087 212.28 39.361Z" fill="#2B2B2B"/>
<path d="M304.227 88.618L310.273 83.7824C305.576 83.2642 303.646 85.8258 302.856 87.8533C299.187 86.3296 295.192 88.3264 295.192 88.3264L307.289 92.718C306.679 91.088 305.617 89.6657 304.227 88.618Z" fill="#2B2B2B"/>
<path d="M205.056 130.651L211.102 125.815C206.405 125.297 204.475 127.858 203.685 129.886C200.016 128.362 196.021 130.359 196.021 130.359L208.118 134.751C207.508 133.121 206.446 131.698 205.056 130.651Z" fill="#2B2B2B"/>
<path d="M323.047 319.575C323.047 319.575 323.341 313.419 329.363 314.135L323.047 319.575Z" fill="#2B2B2B"/>
<path d="M266.469 319.575C266.469 319.575 266.763 313.419 272.785 314.135L266.469 319.575Z" fill="#2B2B2B"/>
<path d="M60.1475 319.575C60.1475 319.575 60.4412 313.419 66.4635 314.135L60.1475 319.575Z" fill="#2B2B2B"/>
<path d="M348.571 319.575C348.571 319.575 348.865 313.419 354.887 314.135L348.571 319.575Z" fill="#2B2B2B"/>
<path d="M336.66 319.575C336.66 319.575 336.954 313.419 342.976 314.135L336.66 319.575Z" fill="#2B2B2B"/>
<path d="M312.088 319.575C312.088 319.575 311.795 313.419 305.772 314.135L312.088 319.575Z" fill="#2B2B2B"/>
<path d="M214.246 319.575C214.246 319.575 213.952 313.419 207.93 314.135L214.246 319.575Z" fill="#2B2B2B"/>
<path d="M132.994 319.575C132.994 319.575 132.7 313.419 126.678 314.135L132.994 319.575Z" fill="#2B2B2B"/>
<path d="M46.6373 319.575C46.6373 319.575 46.3435 313.419 40.3213 314.135L46.6373 319.575Z" fill="#2B2B2B"/>
<path d="M374.198 319.575C374.198 319.575 373.904 313.419 367.882 314.135L374.198 319.575Z" fill="#2B2B2B"/>
<path d="M337.613 320C337.613 320 337.319 313.844 331.297 314.56L337.613 320Z" fill="#2B2B2B"/>
<path d="M419.606 318.77H0V319.715H419.606V318.77Z" fill="#2B2B2B"/>
</g>
<defs>
<clipPath id="clip0_574_6938">
<rect width="419.606" height="320" fill="white"/>
</clipPath>
</defs>
</svg>
