<svg width="92" height="19" viewBox="0 0 92 19" fill="none" xmlns="http://www.w3.org/2000/svg">
    <path d="M3.42676 16L3.83496 13.873H7.61621L8.02441 16H11.666L8.06738 0.960938H3.62012L0.0966797 16H3.42676ZM5.0918 7.68555C5.32812 6.53613 5.5 5.44043 5.60742 4.16211H5.83301C5.96191 5.44043 6.14453 6.53613 6.37012 7.68555L7.10059 11.3916H4.35059L5.0918 7.68555ZM15.6191 16L16.8867 12.2617C17.0693 11.7354 17.1445 11.3594 17.2305 10.8867H17.4668C17.5635 11.3594 17.6494 11.7354 17.832 12.251L19.1104 16H22.9883L19.626 8.0293L22.7842 0.960938H19.1426L18.0576 4.00098C17.9072 4.41992 17.7676 4.9248 17.6494 5.50488H17.4346C17.3164 4.9248 17.1875 4.45215 17.0264 4.01172L15.9414 0.960938H12.1279L15.1895 8.4375L11.9561 16H15.6191ZM27.3389 16V0.960938H23.9014V16H27.3389ZM34.1064 16.29C37.7373 16.29 39.5312 14.1631 39.5312 9.85547V7.12695C39.5312 2.80859 37.7373 0.681641 34.1064 0.681641C30.4648 0.681641 28.6816 2.80859 28.6816 7.12695V9.85547C28.6816 14.1631 30.4648 16.29 34.1064 16.29ZM34.1064 13.5615C32.7959 13.5615 32.1621 12.6162 32.1621 10.6611V6.43945C32.1621 4.3877 32.7959 3.39941 34.1064 3.39941C35.4062 3.39941 36.04 4.3877 36.04 6.43945V10.6611C36.04 12.6162 35.4062 13.5615 34.1064 13.5615ZM44.1719 16V9.74805C44.1719 8.68457 44.1289 7.56738 44.0322 6.1709L44.2578 6.14941L46.5996 16H49.0273L51.3906 6.14941L51.6055 6.18164C51.498 7.57812 51.4658 8.68457 51.4658 9.74805L51.4443 16H54.7959V0.960938H50.4561L48.7803 6.76172C48.5439 7.56738 48.2539 8.99609 47.9639 10.9727H47.7383C47.4697 8.99609 47.1689 7.57812 46.9219 6.76172L45.1924 0.960938H40.874V16H44.1719ZM59.0283 16L59.4365 13.873H63.2178L63.626 16H67.2676L63.6689 0.960938H59.2217L55.6982 16H59.0283ZM60.6934 7.68555C60.9297 6.53613 61.1016 5.44043 61.209 4.16211H61.4346C61.5635 5.44043 61.7461 6.53613 61.9717 7.68555L62.7021 11.3916H59.9521L60.6934 7.68555ZM72.7998 18.1484C72.1123 16.1826 71.7256 13.0137 71.7256 9.28613C71.7256 5.55859 72.1123 2.38965 72.7998 0.423828H71.5322C70.8447 2.38965 70.458 5.55859 70.458 9.28613C70.458 13.0137 70.8447 16.1826 71.5322 18.1484H72.7998ZM74.8408 16.1396C76.1514 16.1396 76.7744 15.3125 76.7744 13.6045C76.7744 12.2832 76.3984 10.7256 75.7324 8.82422L75.0557 6.90137C74.4004 5 74.1963 3.87207 74.1963 2.88379C74.1963 2.1748 74.3896 1.8418 74.7764 1.8418C75.1631 1.8418 75.3564 2.1748 75.3564 2.88379V5.65527L76.624 5.37598V2.98047C76.624 1.51953 76.0439 0.821289 74.7979 0.821289C73.5625 0.821289 72.9502 1.51953 72.9502 3.07715C72.9502 4.15137 73.1865 5.42969 73.8418 7.35254L74.5078 9.28613C75.1631 11.2197 75.5068 12.584 75.5068 13.7334C75.5068 14.6572 75.292 15.1084 74.8623 15.1084C74.4219 15.1084 74.2178 14.6572 74.2178 13.7334V10.8115L72.9287 11.1016V13.6045C72.9287 15.3125 73.584 16.1396 74.8408 16.1396ZM79.4922 16.1396C80.8135 16.1396 81.4473 15.4521 81.4473 14.0449V2.91602C81.4473 1.50879 80.8135 0.821289 79.4922 0.821289C78.1709 0.821289 77.5264 1.50879 77.5264 2.91602V14.0449C77.5264 15.4521 78.1709 16.1396 79.4922 16.1396ZM79.4922 15.0869C79.0625 15.0869 78.8477 14.7432 78.8477 14.0342V2.9375C78.8477 2.20703 79.0625 1.86328 79.4922 1.86328C79.9219 1.86328 80.126 2.20703 80.126 2.9375V14.0342C80.126 14.7432 79.9219 15.0869 79.4922 15.0869ZM83.7031 16V8.63086H84.8418V7.5459H83.7031V2.06738H85.0566V0.960938H82.3818V16H83.7031ZM88.1182 16V2.06738H89.4717V0.960938H85.4541V2.06738H86.8076V16H88.1182ZM89.6543 0.423828C90.3418 2.38965 90.7285 5.55859 90.7285 9.28613C90.7285 13.0137 90.3418 16.1826 89.6543 18.1484H90.9219C91.6094 16.1826 91.9961 13.0137 91.9961 9.28613C91.9961 5.55859 91.6094 2.38965 90.9219 0.423828H89.6543Z" fill="#2B2B2B"/>
</svg>
