<svg width="247" height="320" viewBox="0 0 247 320" fill="none" xmlns="http://www.w3.org/2000/svg">
<g clip-path="url(#clip0_574_6440)">
<path d="M72.7177 120.098L3.89652 105.252L3.00213 105.06C2.54667 104.961 2.07254 104.993 1.63425 105.151C1.19597 105.31 0.811332 105.589 0.524581 105.956C0.237829 106.324 0.0605981 106.764 0.0132814 107.228C-0.0340352 107.692 0.0504878 108.159 0.25711 108.577L27.5819 164.067C27.7588 164.424 28.0187 164.733 28.3398 164.968C28.6609 165.203 29.0337 165.357 29.427 165.418C29.8215 165.48 30.225 165.444 30.6027 165.315C30.9804 165.185 31.3208 164.966 31.5947 164.675L50.5738 144.663C50.7089 144.517 50.8726 144.401 51.0548 144.321C51.237 144.242 51.4337 144.201 51.6325 144.201C51.9028 144.197 52.169 144.267 52.4026 144.403C52.6363 144.538 52.8286 144.735 52.959 144.972L56.8464 152.163C57.0946 152.642 57.496 153.025 57.9868 153.25C58.4776 153.474 59.0295 153.529 59.5547 153.404L59.574 153.399C60.1056 153.287 60.5838 152.999 60.9319 152.581C61.28 152.164 61.4777 151.642 61.4932 151.099L62.2719 134.501C62.2812 134.294 62.3329 134.091 62.4239 133.904C62.5215 133.72 62.6541 133.556 62.8141 133.423L73.7633 124.435C74.1232 124.139 74.3926 123.748 74.5406 123.307C74.6886 122.865 74.7092 122.391 74.6 121.939C74.4909 121.486 74.2564 121.073 73.9235 120.748C73.5906 120.422 73.1727 120.197 72.7177 120.098ZM73.1381 123.671L62.1888 132.659C62.0462 132.773 61.9169 132.904 61.8034 133.048L3.77214 106.73C3.72096 106.706 3.66757 106.687 3.61272 106.674C3.38889 106.616 3.15193 106.638 2.94283 106.737C2.73372 106.835 2.56562 107.004 2.4676 107.213C2.36958 107.423 2.3478 107.66 2.40603 107.883C2.46425 108.107 2.59883 108.303 2.78648 108.438L50.5012 143.488C50.2591 143.614 50.0404 143.781 49.855 143.981L30.876 163.993C30.7113 164.166 30.5072 164.297 30.2811 164.374C30.0549 164.452 29.8134 164.474 29.5771 164.438C29.3407 164.402 29.1164 164.31 28.9234 164.169C28.7303 164.028 28.5742 163.842 28.4682 163.628L1.14338 108.138C1.02122 107.887 0.971936 107.607 1.00115 107.33C1.03037 107.052 1.13689 106.789 1.30861 106.569C1.48032 106.349 1.71031 106.182 1.97237 106.087C2.23443 105.991 2.51803 105.971 2.79086 106.029L3.70649 106.227L72.5062 121.068C72.7794 121.127 73.0303 121.262 73.2304 121.457C73.4305 121.652 73.5716 121.9 73.6375 122.171C73.7035 122.443 73.6916 122.727 73.6033 122.993C73.5149 123.258 73.3537 123.493 73.1381 123.671Z" fill="#FFD369"/>
<path d="M87.3881 318.05C81.2149 316.382 73.702 309.448 75.3104 299.916C76.1081 295.189 79.1698 292.129 82.3443 290.15C86.7354 287.413 91.7364 286.382 96.5557 286.121C102.114 285.821 107.667 286.578 113.184 287.38C118.631 288.171 124.078 288.879 129.549 289.312C150.957 290.991 172.497 289.392 193.422 284.569C198.587 283.377 203.72 281.979 208.823 280.374C213.659 278.951 218.386 277.184 222.97 275.087C229.036 272.175 238.902 266.507 238.098 256.01C237.671 250.445 234.394 246 231.088 242.903C227.09 239.158 222.465 236.695 217.934 234.302C196.862 223.174 175.749 212.178 154.656 201.116C149.733 198.535 144.777 196.022 140 192.997C135.527 190.165 131.074 186.875 127.475 182.325C124.331 178.352 121.521 173.018 121.62 167.055C121.702 162.11 123.953 157.913 126.709 154.777C133.533 147.012 143.185 143.864 151.91 142.215C162.748 140.166 173.744 140.177 184.59 138.198C193.348 136.601 202.705 133.517 209.827 126.291C212.84 123.352 214.971 119.628 215.979 115.542C216.889 111.262 216.447 106.805 214.714 102.787C212.785 98.1785 209.707 94.5075 206.471 91.5016C202.754 88.0966 198.538 85.2799 193.97 83.1492C184.35 78.5654 174.235 76.1787 164.382 72.6611C159.55 70.9359 154.669 69.0442 150.181 66.081C146.38 63.5705 142.239 60.1866 140.124 55.1544C135.76 44.7719 146.171 38.5841 152.069 36.2402C156.079 34.7196 160.208 33.5373 164.415 32.706C165.305 32.515 164.927 30.7395 164.042 30.9296C159.614 31.7929 155.274 33.06 151.077 34.7151C147.52 36.1931 143.85 38.1354 141.056 41.4776C139.784 42.9867 138.843 44.7463 138.295 46.6425C137.747 48.5386 137.604 50.5287 137.875 52.4837C138.615 57.4654 141.832 61.3038 144.854 64.0841C148.849 67.7608 153.405 70.1619 158.023 72.1191C162.888 74.1805 167.856 75.787 172.822 77.3628C182.745 80.5116 193.113 83.3176 202.071 90.018C208.337 94.7052 216.85 103.493 214.766 114.386C213.84 119.222 211.031 123.002 207.998 125.783C204.438 128.952 200.331 131.449 195.879 133.152C176.028 141.141 154.181 135.428 134.842 146.279C128.266 149.968 120.279 156.685 120.215 167.254C120.182 172.744 122.382 177.779 125.103 181.759C128.362 186.526 132.582 190.051 136.875 192.997C141.396 195.985 146.09 198.703 150.932 201.136C156.222 203.914 161.514 206.689 166.806 209.461L198.924 226.303L214.882 234.672C219.752 237.226 224.747 239.676 229.176 243.425C232.801 246.495 237.085 251.531 236.715 257.785C236.422 262.751 233.122 266.335 230.107 268.732C226.204 271.834 221.818 273.841 217.455 275.509C212.422 277.433 207.306 279.028 202.181 280.463C191.682 283.397 180.967 285.495 170.136 286.735C159.333 287.979 148.449 288.385 137.583 287.948C132.092 287.728 126.61 287.288 121.137 286.631C115.495 285.951 109.878 284.905 104.221 284.44C99.1051 284.02 93.9395 284.117 88.901 285.468C84.694 286.595 80.2493 288.605 77.0558 292.526C74.702 295.519 73.5233 299.27 73.7415 303.072C73.9577 306.866 75.3104 310.507 77.6237 313.522C79.9735 316.601 83.2751 318.818 87.015 319.826C87.8969 320.064 88.2739 318.289 87.3881 318.05Z" fill="#E1DDD9"/>
<path d="M247 319H0V320H247V319Z" fill="#3F3D56"/>
<path d="M233.708 266.642C239.495 266.642 244.186 261.95 244.186 256.164C244.186 250.377 239.495 245.685 233.708 245.685C227.921 245.685 223.229 250.377 223.229 256.164C223.229 261.95 227.921 266.642 233.708 266.642Z" fill="#E1DDD9"/>
<path d="M214.591 118.957C220.378 118.957 225.07 114.265 225.07 108.478C225.07 102.691 220.378 98.0002 214.591 98.0002C208.805 98.0002 204.113 102.691 204.113 108.478C204.113 114.265 208.805 118.957 214.591 118.957Z" fill="#E1DDD9"/>
<path d="M190.901 0.438309L161.806 13.0864C160.522 13.6467 159.511 14.6939 158.997 15.9982C158.484 17.3024 158.508 18.7573 159.065 20.0435L168.1 40.8253C168.66 42.1103 169.707 43.1206 171.012 43.6344C172.316 44.1483 173.771 44.1239 175.057 43.5664L204.151 30.9183C205.436 30.358 206.447 29.3108 206.961 28.0066C207.474 26.7023 207.45 25.2474 206.893 23.9612L197.858 3.17939C197.298 1.8944 196.251 0.884149 194.946 0.370275C193.642 -0.143599 192.187 -0.119131 190.901 0.438309ZM192.106 3.20922C192.28 3.13439 192.462 3.08178 192.65 3.05262L182.813 21.6113L162.61 16.0825C162.736 15.994 162.87 15.9186 163.011 15.8573L192.106 3.20922ZM202.947 28.1474L173.852 40.7955C173.301 41.0344 172.678 41.0449 172.119 40.8246C171.56 40.6044 171.111 40.1714 170.871 39.6207L161.917 19.0255L183.183 24.8449C183.514 24.9355 183.866 24.9107 184.181 24.7744C184.496 24.6381 184.755 24.3986 184.916 24.0953L195.212 4.67017L204.122 25.1657C204.361 25.717 204.371 26.3405 204.151 26.8995C203.931 27.4585 203.498 27.9072 202.947 28.1474Z" fill="#E1DDD9"/>
<path d="M158.492 180.984C173.123 180.984 184.984 169.123 184.984 154.492C184.984 139.861 173.123 128 158.492 128C143.861 128 132 139.861 132 154.492C132 169.123 143.861 180.984 158.492 180.984Z" fill="#FFD369"/>
<path d="M156.655 162C156.214 162.001 155.784 161.848 155.431 161.564L155.409 161.546L150.802 157.761C150.589 157.586 150.41 157.367 150.275 157.117C150.14 156.867 150.053 156.592 150.018 156.306C149.982 156.02 150 155.729 150.069 155.45C150.139 155.172 150.259 154.91 150.422 154.681C150.586 154.453 150.79 154.26 151.022 154.116C151.255 153.972 151.512 153.878 151.778 153.84C152.045 153.802 152.316 153.821 152.575 153.895C152.835 153.97 153.079 154.098 153.292 154.274L156.276 156.729L163.328 146.86C163.492 146.631 163.696 146.439 163.929 146.295C164.162 146.15 164.418 146.057 164.685 146.019C164.951 145.981 165.222 146 165.482 146.075C165.742 146.149 165.985 146.278 166.198 146.453L166.155 146.517L166.2 146.454C166.63 146.809 166.911 147.333 166.982 147.91C167.053 148.487 166.908 149.071 166.578 149.534L158.283 161.143C158.091 161.41 157.845 161.627 157.562 161.775C157.28 161.924 156.969 162.001 156.655 162Z" fill="#2B2B2B"/>
<path d="M154.093 319.217H146.787C145.934 319.216 145.116 318.877 144.513 318.274C143.91 317.67 143.571 316.853 143.57 315.999V255.108C143.571 254.255 143.91 253.437 144.513 252.834C145.116 252.231 145.934 251.891 146.787 251.89H154.093C154.946 251.891 155.764 252.231 156.367 252.834C156.971 253.437 157.31 254.255 157.311 255.108V315.999C157.31 316.853 156.971 317.67 156.367 318.274C155.764 318.877 154.946 319.216 154.093 319.217Z" fill="#2B2B2B"/>
<path d="M168.544 319.217H161.238C160.384 319.216 159.567 318.877 158.963 318.274C158.36 317.67 158.021 316.853 158.02 315.999V255.108C158.021 254.255 158.36 253.437 158.963 252.834C159.567 252.231 160.384 251.891 161.238 251.89H168.544C169.397 251.891 170.214 252.231 170.818 252.834C171.421 253.437 171.76 254.255 171.761 255.108V315.999C171.76 316.853 171.421 317.67 170.818 318.274C170.214 318.877 169.397 319.216 168.544 319.217Z" fill="#2B2B2B"/>
<path d="M198.82 248.74C198.499 248.74 198.179 248.692 197.873 248.598C197.468 248.475 197.092 248.273 196.766 248.004C196.44 247.735 196.171 247.404 195.974 247.03L167.43 193.242C167.232 192.869 167.109 192.461 167.069 192.04C167.029 191.619 167.072 191.195 167.196 190.791C167.319 190.387 167.522 190.012 167.791 189.686C168.06 189.36 168.39 189.09 168.763 188.892L175.217 185.467C175.59 185.269 175.999 185.147 176.419 185.106C176.84 185.066 177.264 185.109 177.668 185.233C178.072 185.357 178.448 185.559 178.774 185.828C179.1 186.097 179.369 186.428 179.567 186.801L208.111 240.588C208.309 240.962 208.432 241.37 208.472 241.791C208.512 242.211 208.469 242.636 208.345 243.04C208.222 243.444 208.019 243.819 207.75 244.145C207.481 244.471 207.151 244.741 206.777 244.939L200.324 248.363C199.861 248.611 199.344 248.74 198.82 248.74Z" fill="#FFD369"/>
<path d="M139.398 199.163C139.012 199.163 138.629 199.093 138.268 198.956L81.3043 177.437C80.9092 177.287 80.5474 177.062 80.2395 176.772C79.9317 176.483 79.684 176.136 79.5104 175.751C79.3369 175.366 79.2409 174.95 79.2281 174.528C79.2152 174.106 79.2857 173.685 79.4355 173.29L82.0125 166.455C82.3166 165.658 82.9241 165.014 83.7021 164.664C84.48 164.313 85.3651 164.285 86.1637 164.586L143.126 186.1C143.923 186.404 144.567 187.01 144.918 187.786C145.269 188.563 145.299 189.447 145 190.246L142.418 197.082C142.185 197.694 141.771 198.22 141.232 198.592C140.693 198.964 140.053 199.163 139.398 199.163Z" fill="#FFD369"/>
<path d="M174.565 185.306H141.369C139.729 185.306 138.399 186.635 138.399 188.276V258.801C138.399 260.441 139.729 261.771 141.369 261.771H174.565C176.205 261.771 177.535 260.441 177.535 258.801V188.276C177.535 186.635 176.205 185.306 174.565 185.306Z" fill="#2B2B2B"/>
<path d="M138.355 198.725L114.945 191.587C114.214 191.364 113.598 190.869 113.223 190.204C112.849 189.539 112.744 188.755 112.932 188.015L115.665 177.247C115.773 176.821 115.974 176.425 116.253 176.087C116.533 175.748 116.883 175.476 117.281 175.289C117.678 175.103 118.111 175.006 118.55 175.007C118.989 175.008 119.422 175.106 119.819 175.295L143.038 186.332C143.774 186.611 144.369 187.171 144.694 187.888C145.018 188.605 145.045 189.421 144.768 190.158L142.186 196.994C141.907 197.731 141.347 198.328 140.628 198.652C139.91 198.977 139.092 199.003 138.355 198.725Z" fill="#2B2B2B"/>
<path d="M167.85 192.633L177.89 214.954C178.203 215.65 178.772 216.199 179.479 216.486C180.187 216.774 180.977 216.778 181.687 216.499L192.024 212.427C192.432 212.266 192.8 212.016 193.1 211.696C193.401 211.377 193.627 210.994 193.762 210.576C193.896 210.159 193.937 209.717 193.881 209.281C193.824 208.846 193.672 208.429 193.435 208.059L179.552 186.421C179.182 185.726 178.552 185.207 177.799 184.976C177.047 184.745 176.234 184.821 175.538 185.188L169.083 188.614C168.387 188.984 167.866 189.615 167.635 190.369C167.404 191.122 167.481 191.937 167.85 192.633Z" fill="#2B2B2B"/>
<path d="M72.7177 120.098L3.89652 105.252L3.00213 105.06C2.54667 104.961 2.07254 104.993 1.63425 105.151C1.19597 105.31 0.811332 105.589 0.524581 105.956C0.237829 106.324 0.0605981 106.764 0.0132814 107.228C-0.0340352 107.692 0.0504878 108.159 0.25711 108.577L27.5819 164.067C27.7588 164.424 28.0187 164.733 28.3398 164.968C28.6609 165.203 29.0337 165.357 29.427 165.418C29.8215 165.48 30.225 165.444 30.6027 165.315C30.9804 165.185 31.3208 164.966 31.5947 164.675L50.5738 144.663C50.7089 144.517 50.8726 144.401 51.0548 144.321C51.237 144.242 51.4337 144.201 51.6325 144.201C51.9028 144.197 52.169 144.267 52.4026 144.403C52.6363 144.538 52.8286 144.735 52.959 144.972L56.8464 152.163C57.0946 152.642 57.496 153.025 57.9868 153.25C58.4776 153.474 59.0295 153.529 59.5547 153.404L59.574 153.399C60.1056 153.287 60.5838 152.999 60.9319 152.581C61.28 152.164 61.4777 151.642 61.4932 151.099L62.2719 134.501C62.2812 134.294 62.3329 134.091 62.4239 133.904C62.5215 133.72 62.6541 133.556 62.8141 133.423L73.7633 124.435C74.1232 124.139 74.3926 123.748 74.5406 123.307C74.6886 122.865 74.7092 122.391 74.6 121.939C74.4909 121.486 74.2564 121.073 73.9235 120.748C73.5906 120.422 73.1727 120.197 72.7177 120.098ZM73.1381 123.671L62.1888 132.659C62.0462 132.773 61.9169 132.904 61.8034 133.048C61.7011 133.176 61.6128 133.314 61.5399 133.461C61.4635 133.611 61.4033 133.769 61.3603 133.932L61.3614 133.937C61.316 134.106 61.2899 134.28 61.2834 134.456L60.5049 151.054C60.4984 151.38 60.381 151.695 60.172 151.946C59.9631 152.196 59.675 152.369 59.3552 152.434L59.3455 152.436C59.0303 152.514 58.698 152.484 58.4023 152.35C58.1067 152.215 57.865 151.985 57.7166 151.696L53.8281 144.501C53.6277 144.131 53.3361 143.818 52.981 143.592C52.6258 143.367 52.2188 143.235 51.7987 143.211L51.794 143.212C51.7374 143.209 51.6811 143.207 51.6259 143.209C51.2338 143.209 50.8478 143.305 50.5012 143.488C50.2591 143.614 50.0405 143.781 49.855 143.981L30.876 163.993C30.7113 164.166 30.5072 164.297 30.2811 164.374C30.055 164.452 29.8134 164.474 29.5771 164.438C29.3407 164.402 29.1165 164.31 28.9234 164.169C28.7304 164.028 28.5742 163.842 28.4682 163.628L1.14338 108.138C1.02122 107.887 0.971936 107.607 1.00115 107.33C1.03037 107.052 1.13689 106.789 1.30861 106.569C1.48032 106.349 1.71031 106.182 1.97237 106.087C2.23443 105.991 2.51803 105.971 2.79086 106.029L3.70649 106.227L72.5062 121.068C72.7794 121.127 73.0303 121.262 73.2304 121.457C73.4305 121.652 73.5716 121.9 73.6375 122.171C73.7035 122.443 73.6916 122.727 73.6033 122.993C73.5149 123.258 73.3537 123.493 73.1381 123.671Z" fill="#3F3D56"/>
<path d="M62.023 133.146L61.614 134.048L61.3614 133.937L61.3603 133.932L3.37498 107.639L51.7939 143.212L51.7986 143.211L51.9269 143.309L51.343 144.108L50.5012 143.488L2.78644 108.438C2.59879 108.303 2.46422 108.107 2.40599 107.883C2.34776 107.66 2.36954 107.423 2.46756 107.213C2.56558 107.004 2.73369 106.835 2.94279 106.737C3.15189 106.638 3.38885 106.616 3.61269 106.674C3.66753 106.687 3.72092 106.706 3.7721 106.73L61.8034 133.048L62.023 133.146Z" fill="#3F3D56"/>
</g>
<defs>
<clipPath id="clip0_574_6440">
<rect width="246.559" height="320" fill="white"/>
</clipPath>
</defs>
</svg>
